<?xml version="1.0" encoding="utf-8"?>
<!-- Generator: Adobe Illustrator 16.0.0, SVG Export Plug-In . SVG Version: 6.00 Build 0)  -->
<!DOCTYPE svg PUBLIC "-//W3C//DTD SVG 1.1//EN" "http://www.w3.org/Graphics/SVG/1.1/DTD/svg11.dtd">
<svg version="1.1" id="Layer_1" xmlns="http://www.w3.org/2000/svg" xmlns:xlink="http://www.w3.org/1999/xlink" x="0px" y="0px"
	 width="1103px" height="1081px" viewBox="0 0 1103 1081" enable-background="new 0 0 1103 1081" xml:space="preserve">
<rect y="358.953" width="1109.557" height="366.879"/>
<g>
	<g>
		<g>
			<path fill="#8451A1" d="M217.063,128.985l-20.305-8.412l34.295-82.797l20.305,8.414L238.84,76.411l26.255,10.875l12.519-30.223
				l20.305,8.411l-34.295,82.797l-20.305-8.412l14.018-33.842l-26.256-10.876L217.063,128.985z"/>
			<path fill="#CDCCCC" d="M165.503,198.612l29.299-70.736l18.476,7.711l-13.651,32.958l20.465-7.949l8.043,19.124l13.495-32.446
				l18.201,7.539l-29.298,70.735l-20.585-40.457L165.503,198.612z"/>
			<path fill="#8451A1" d="M208.772,158.526l8.791-21.223l5.542,2.313l-4.096,9.889l6.142-2.385l2.412,5.737l4.05-9.734l5.458,2.263
				l-8.791,21.223l-6.175-12.14L208.772,158.526z"/>
			<g>
				
					<rect x="181.491" y="200.247" transform="matrix(0.9239 0.3826 -0.3826 0.9239 95.9079 -54.3669)" fill="#8451A1" width="6.329" height="27.446"/>
				
					<rect x="186.974" y="217.374" transform="matrix(0.9238 0.3828 -0.3828 0.9238 102.9384 -55.1805)" fill="#8451A1" width="6.33" height="27.445"/>
				
					<rect x="202.961" y="209.143" transform="matrix(0.9238 0.383 -0.383 0.9238 101.0659 -61.9493)" fill="#8451A1" width="6.33" height="27.444"/>
			</g>
		</g>
		<path fill="#8451A1" d="M85.954,307.521H73.77v-49.669h12.184v18.132h15.752v-18.132h12.177v49.669h-12.177v-20.302H85.954
			V307.521z"/>
		<path fill="#8451A1" d="M277.273,257.852v49.669l-12.987-0.038v-23.137l-10.297,9.839l-9.567-9.458l-0.031,22.795h-12.784v-49.669
			l22.382,19.134L277.273,257.852z"/>
		<path fill="#CDCCCC" d="M127.177,279.639l3.106,7.284h0.296c0.148-0.443,0.289-0.887,0.427-1.331
			c0.134-0.443,0.299-0.875,0.499-1.293l1.998-4.659h11.389l-9.543,15.864v12.018h-9.908v-12.018l-9.726-15.864H127.177z"/>
		<path fill="#CDCCCC" d="M146.886,279.639h12.832c1.629,0,3.13,0.21,4.512,0.628c1.381,0.42,2.576,1.054,3.588,1.904
			c1.009,0.851,1.798,1.917,2.366,3.198c0.568,1.283,0.851,2.786,0.851,4.511c0,1.431-0.217,2.712-0.647,3.847
			c-0.43,1.133-1.04,2.102-1.829,2.903c-0.792,0.801-1.756,1.417-2.903,1.848c-1.147,0.432-2.425,0.647-3.83,0.647h-5.176v8.395
			h-9.763V279.639z M156.649,292.101h0.999c0.444,0,0.889-0.024,1.333-0.074c0.441-0.05,0.837-0.167,1.181-0.351
			s0.63-0.444,0.851-0.776c0.224-0.333,0.334-0.782,0.334-1.35c0-0.542-0.117-0.968-0.351-1.276
			c-0.234-0.309-0.53-0.536-0.889-0.684c-0.358-0.148-0.757-0.241-1.202-0.277c-0.444-0.038-0.875-0.055-1.295-0.055h-0.961V292.101
			z"/>
		<path fill="#CDCCCC" d="M173.662,279.639h18.745v7.618h-8.541v2.662h7.804v7.248h-7.804v2.736h8.837v7.618h-19.041V279.639z"/>
		<path fill="#CDCCCC" d="M291.779,307.521h-10.724l7.652-22.003l-5.359-5.878h18.6l9.946,27.881H301.17l-0.923-3.477h-7.656
			L291.779,307.521z M298.47,297.425l-1.181-4.918c-0.148-0.59-0.272-1.188-0.372-1.792c-0.096-0.604-0.196-1.202-0.296-1.794
			h-0.368l-1.85,8.504H298.47z"/>
		<path fill="#CDCCCC" d="M314.074,279.639h9.874l-0.221,12.091h0.221c0.124-0.566,0.32-1.109,0.592-1.627
			c0.272-0.517,0.544-1.022,0.813-1.515l4.883-8.949h11.055l-8.727,13.57l9.653,14.311h-11.761l-4.808-8.431
			c-0.296-0.542-0.624-1.078-0.978-1.608c-0.358-0.53-0.599-1.08-0.723-1.646h-0.221l0.221,11.685h-9.874V279.639z"/>
		<path fill="#CDCCCC" d="M344.215,279.639h18.745v7.618h-8.541v2.662h7.804v7.248h-7.804v2.736h8.837v7.618h-19.041V279.639z"/>
		<path fill="#CDCCCC" d="M216.148,297.351c-0.248-0.246-0.52-0.504-0.816-0.776c0.937-0.319,1.746-0.677,2.424-1.071
			c0.679-0.394,1.24-0.875,1.681-1.443c0.444-0.566,0.771-1.233,0.981-1.998c0.21-0.763,0.313-1.675,0.313-2.736
			c0-1.75-0.307-3.241-0.923-4.474c-0.617-1.233-1.457-2.237-2.514-3.013c-1.061-0.777-2.293-1.338-3.699-1.684
			c-1.405-0.345-2.896-0.517-4.474-0.517H196.88v27.881h9.911v-8.949h0.186l4.443,8.949h11.678l-6.064-9.059
			C216.689,297.967,216.393,297.599,216.148,297.351z M210.545,290.899c-0.186,0.308-0.438,0.542-0.757,0.702
			c-0.32,0.16-0.679,0.265-1.075,0.315c-0.393,0.048-0.799,0.072-1.219,0.072h-0.703v-4.732h0.778c0.441,0,0.861,0.024,1.257,0.074
			c0.393,0.05,0.737,0.16,1.033,0.332c0.296,0.172,0.53,0.414,0.703,0.722c0.172,0.308,0.262,0.733,0.262,1.276
			C210.825,290.177,210.731,290.59,210.545,290.899z"/>
	</g>
	<g>
		<g>
			<path fill="#8451A1" d="M507.039,160.251l-20.305-8.41l34.295-82.797l20.306,8.413l-12.519,30.22l26.256,10.876l12.518-30.223
				l20.307,8.413L553.6,179.541l-20.305-8.414l14.018-33.842l-26.255-10.876L507.039,160.251z"/>
			<path fill="#CDCCCC" d="M455.48,229.879l29.298-70.736l18.476,7.711l-13.65,32.958l20.465-7.949l8.043,19.124l13.494-32.445
				l18.201,7.539l-29.299,70.733l-20.585-40.455L455.48,229.879z"/>
			<path fill="#8451A1" d="M498.748,189.792l8.791-21.221l5.543,2.311l-4.097,9.891l6.142-2.387l2.412,5.737l4.051-9.732
				l5.459,2.262l-8.791,21.221l-6.175-12.14L498.748,189.792z"/>
			<g>
				
					<rect x="471.467" y="231.516" transform="matrix(0.924 0.3825 -0.3825 0.924 129.9017 -162.9017)" fill="#8451A1" width="6.329" height="27.446"/>
				
					<rect x="476.95" y="248.643" transform="matrix(0.9237 0.383 -0.383 0.9237 137.1126 -163.8923)" fill="#8451A1" width="6.33" height="27.443"/>
				
					<rect x="492.937" y="240.409" transform="matrix(0.9238 0.383 -0.383 0.9238 135.1483 -170.6182)" fill="#8451A1" width="6.33" height="27.446"/>
			</g>
		</g>
		<path fill="#8451A1" d="M609.656,209.144h-12.184v-49.67h12.184v18.132h15.754v-18.132h12.176v49.67H625.41v-20.301h-15.754
			V209.144z"/>
		<path fill="#8451A1" d="M800.977,159.473v49.67l-12.986-0.038v-23.139l-10.299,9.839l-9.566-9.457l-0.031,22.794h-12.783v-49.67
			l22.381,19.134L800.977,159.473z"/>
		<path fill="#CDCCCC" d="M650.879,181.262l3.107,7.284h0.297c0.146-0.444,0.289-0.888,0.426-1.333
			c0.135-0.441,0.301-0.875,0.5-1.292l1.998-4.66h11.389l-9.543,15.862v12.019h-9.908v-12.019l-9.727-15.862H650.879z"/>
		<path fill="#CDCCCC" d="M670.59,181.262h12.83c1.629,0,3.131,0.21,4.512,0.627c1.381,0.42,2.576,1.054,3.59,1.904
			c1.008,0.851,1.797,1.918,2.365,3.199c0.568,1.281,0.85,2.786,0.85,4.512c0,1.429-0.217,2.71-0.646,3.847
			c-0.43,1.133-1.041,2.101-1.828,2.903c-0.793,0.799-1.758,1.415-2.904,1.846c-1.146,0.434-2.424,0.647-3.828,0.647h-5.178v8.396
			h-9.762V181.262z M680.352,193.722h1c0.443,0,0.889-0.024,1.332-0.072c0.441-0.052,0.838-0.169,1.182-0.352
			c0.344-0.186,0.631-0.444,0.85-0.778c0.225-0.331,0.334-0.782,0.334-1.35c0-0.541-0.117-0.968-0.35-1.274
			c-0.234-0.31-0.531-0.537-0.889-0.685c-0.359-0.148-0.758-0.241-1.203-0.276c-0.443-0.038-0.875-0.055-1.295-0.055h-0.961V193.722
			z"/>
		<path fill="#CDCCCC" d="M697.365,181.262h18.744v7.618h-8.541v2.662h7.805v7.246h-7.805v2.738h8.838v7.618h-19.041V181.262z"/>
		<path fill="#CDCCCC" d="M815.482,209.144h-10.725l7.652-22.002l-5.359-5.879h18.6l9.947,27.881h-10.725l-0.924-3.478h-7.654
			L815.482,209.144z M822.174,199.046l-1.182-4.918c-0.148-0.589-0.273-1.188-0.373-1.791c-0.096-0.606-0.195-1.202-0.295-1.794
			h-0.369l-1.85,8.503H822.174z"/>
		<path fill="#CDCCCC" d="M837.777,181.262h9.873l-0.221,12.091h0.221c0.125-0.568,0.32-1.109,0.592-1.629
			c0.273-0.517,0.545-1.023,0.813-1.515l4.885-8.947h11.055l-8.727,13.569l9.652,14.313h-11.76l-4.809-8.43
			c-0.297-0.544-0.623-1.078-0.979-1.608c-0.357-0.53-0.598-1.082-0.723-1.646h-0.221l0.221,11.685h-9.873V181.262z"/>
		<path fill="#CDCCCC" d="M867.918,181.262h18.744v7.618h-8.541v2.662h7.805v7.246h-7.805v2.738h8.838v7.618h-19.041V181.262z"/>
		<path fill="#CDCCCC" d="M739.852,198.974c-0.248-0.248-0.52-0.506-0.816-0.778c0.938-0.317,1.746-0.675,2.424-1.071
			c0.68-0.393,1.24-0.875,1.682-1.443c0.443-0.565,0.771-1.233,0.98-1.998c0.211-0.761,0.314-1.673,0.314-2.734
			c0-1.75-0.307-3.241-0.924-4.474c-0.615-1.232-1.457-2.238-2.514-3.013c-1.061-0.778-2.293-1.339-3.699-1.684
			c-1.404-0.344-2.896-0.517-4.473-0.517h-12.242v27.881h9.91v-8.951h0.186l4.443,8.951h11.678l-6.064-9.061
			C740.393,199.59,740.096,199.222,739.852,198.974z M734.248,192.52c-0.186,0.31-0.438,0.544-0.758,0.703
			c-0.32,0.162-0.678,0.265-1.074,0.317c-0.393,0.048-0.799,0.072-1.219,0.072h-0.703v-4.732h0.779c0.439,0,0.861,0.024,1.256,0.073
			c0.393,0.051,0.738,0.162,1.033,0.334c0.297,0.172,0.531,0.413,0.703,0.72c0.172,0.31,0.262,0.733,0.262,1.277
			C734.527,191.8,734.434,192.214,734.248,192.52z"/>
	</g>
</g>
<g>
	<g>
		<g>
			<path fill="#FFFFFF" d="M217.063,498.729l-20.305-8.411l34.295-82.797l20.305,8.413l-12.518,30.222l26.255,10.876l12.519-30.223
				l20.305,8.41l-34.295,82.797l-20.305-8.411l14.018-33.843l-26.256-10.875L217.063,498.729z"/>
			<path fill="#FFFFFF" d="M165.503,568.356l29.299-70.736l18.476,7.711l-13.651,32.958l20.465-7.949l8.043,19.124l13.495-32.446
				l18.201,7.539l-29.298,70.734l-20.585-40.457L165.503,568.356z"/>
			<path fill="#FFFFFF" d="M208.772,528.27l8.791-21.223l5.542,2.313l-4.096,9.889l6.142-2.385l2.412,5.737l4.05-9.734l5.458,2.264
				l-8.791,21.223l-6.175-12.141L208.772,528.27z"/>
			<g>
				
					<rect x="181.491" y="569.992" transform="matrix(0.9239 0.3826 -0.3826 0.9239 237.4069 -26.2344)" fill="#FFFFFF" width="6.329" height="27.445"/>
				
					<rect x="186.974" y="587.118" transform="matrix(0.9238 0.3828 -0.3828 0.9238 244.4668 -27.0215)" fill="#FFFFFF" width="6.33" height="27.445"/>
				
					<rect x="202.961" y="578.886" transform="matrix(0.9238 0.3829 -0.3829 0.9238 242.6227 -33.7627)" fill="#FFFFFF" width="6.33" height="27.445"/>
			</g>
		</g>
		<path fill="#FFFFFF" d="M85.954,677.265H73.77v-49.669h12.184v18.132h15.752v-18.132h12.177v49.669h-12.177v-20.302H85.954
			V677.265z"/>
		<path fill="#FFFFFF" d="M277.273,627.596v49.669l-12.987-0.038V654.09l-10.297,9.838l-9.567-9.458l-0.031,22.795h-12.784v-49.669
			l22.382,19.134L277.273,627.596z"/>
		<path fill="#FFFFFF" d="M127.177,649.383l3.106,7.284h0.296c0.148-0.442,0.289-0.887,0.427-1.331
			c0.134-0.443,0.299-0.875,0.499-1.293l1.998-4.66h11.389l-9.543,15.864v12.018h-9.908v-12.018l-9.726-15.864H127.177z"/>
		<path fill="#FFFFFF" d="M146.886,649.383h12.832c1.629,0,3.13,0.211,4.512,0.629c1.381,0.42,2.576,1.054,3.588,1.904
			c1.009,0.851,1.798,1.916,2.366,3.197c0.568,1.283,0.851,2.787,0.851,4.512c0,1.432-0.217,2.713-0.647,3.848
			c-0.43,1.133-1.04,2.102-1.829,2.902c-0.792,0.801-1.756,1.417-2.903,1.848c-1.147,0.432-2.425,0.647-3.83,0.647h-5.176v8.395
			h-9.763V649.383z M156.649,661.845h0.999c0.444,0,0.889-0.024,1.333-0.074c0.441-0.05,0.837-0.167,1.181-0.351
			c0.344-0.185,0.63-0.445,0.851-0.777c0.224-0.332,0.334-0.781,0.334-1.35c0-0.543-0.117-0.968-0.351-1.275
			c-0.234-0.309-0.53-0.536-0.889-0.684c-0.358-0.148-0.757-0.242-1.202-0.277c-0.444-0.039-0.875-0.056-1.295-0.056h-0.961V661.845
			z"/>
		<path fill="#FFFFFF" d="M173.662,649.383h18.745v7.618h-8.541v2.662h7.804v7.247h-7.804v2.736h8.837v7.618h-19.041V649.383z"/>
		<path fill="#FFFFFF" d="M291.779,677.265h-10.724l7.652-22.003l-5.359-5.879h18.6l9.946,27.882H301.17l-0.923-3.477h-7.656
			L291.779,677.265z M298.47,667.169l-1.181-4.918c-0.148-0.591-0.272-1.188-0.372-1.792c-0.096-0.605-0.196-1.202-0.296-1.795
			h-0.368l-1.85,8.505H298.47z"/>
		<path fill="#FFFFFF" d="M314.074,649.383h9.874l-0.221,12.092h0.221c0.124-0.566,0.32-1.109,0.592-1.627s0.544-1.023,0.813-1.516
			l4.883-8.949h11.055l-8.727,13.57l9.653,14.312h-11.761l-4.808-8.431c-0.296-0.543-0.624-1.078-0.978-1.608
			c-0.358-0.53-0.599-1.079-0.723-1.646h-0.221l0.221,11.685h-9.874V649.383z"/>
		<path fill="#FFFFFF" d="M344.215,649.383h18.745v7.618h-8.541v2.662h7.804v7.247h-7.804v2.736h8.837v7.618h-19.041V649.383z"/>
		<path fill="#FFFFFF" d="M216.148,667.095c-0.248-0.246-0.52-0.505-0.816-0.776c0.937-0.318,1.746-0.677,2.424-1.071
			c0.679-0.394,1.24-0.874,1.681-1.442c0.444-0.566,0.771-1.233,0.981-1.998c0.21-0.763,0.313-1.676,0.313-2.736
			c0-1.749-0.307-3.24-0.923-4.473c-0.617-1.233-1.457-2.237-2.514-3.014c-1.061-0.777-2.293-1.338-3.699-1.684
			c-1.405-0.346-2.896-0.518-4.474-0.518H196.88v27.882h9.911v-8.948h0.186l4.443,8.948h11.678l-6.064-9.06
			C216.689,667.711,216.393,667.343,216.148,667.095z M210.545,660.643c-0.186,0.309-0.438,0.543-0.757,0.703
			c-0.32,0.16-0.679,0.265-1.075,0.314c-0.393,0.049-0.799,0.072-1.219,0.072h-0.703v-4.731h0.778c0.441,0,0.861,0.024,1.257,0.074
			c0.393,0.05,0.737,0.16,1.033,0.332c0.296,0.173,0.53,0.413,0.703,0.722c0.172,0.309,0.262,0.733,0.262,1.275
			C210.825,659.922,210.731,660.334,210.545,660.643z"/>
	</g>
	<g>
		<g>
			<path fill="#FFFFFF" d="M507.039,529.996l-20.305-8.41l34.295-82.797l20.306,8.413l-12.519,30.22l26.256,10.876l12.518-30.224
				l20.307,8.414L553.6,549.285l-20.305-8.414l14.018-33.842l-26.255-10.877L507.039,529.996z"/>
			<path fill="#FFFFFF" d="M455.48,599.623l29.298-70.736l18.476,7.711l-13.65,32.957l20.465-7.948l8.043,19.124l13.494-32.445
				l18.201,7.539l-29.299,70.733l-20.585-40.455L455.48,599.623z"/>
			<path fill="#FFFFFF" d="M498.748,559.537l8.791-21.221l5.543,2.311l-4.097,9.891l6.142-2.387l2.412,5.737l4.051-9.731
				l5.459,2.262l-8.791,21.221l-6.175-12.139L498.748,559.537z"/>
			<g>
				
					<rect x="471.468" y="601.259" transform="matrix(0.924 0.3824 -0.3824 0.924 271.2258 -134.754)" fill="#FFFFFF" width="6.329" height="27.446"/>
				
					<rect x="476.95" y="618.387" transform="matrix(0.9237 0.383 -0.383 0.9237 278.7385 -135.693)" fill="#FFFFFF" width="6.33" height="27.443"/>
				
					<rect x="492.937" y="610.154" transform="matrix(0.9237 0.383 -0.383 0.9237 276.8046 -142.4445)" fill="#FFFFFF" width="6.33" height="27.445"/>
			</g>
		</g>
		<path fill="#FFFFFF" d="M609.656,578.888h-12.184v-49.671h12.184v18.133h15.754v-18.133h12.176v49.671H625.41v-20.302h-15.754
			V578.888z"/>
		<path fill="#FFFFFF" d="M800.977,529.217v49.671l-12.986-0.038v-23.139l-10.299,9.839l-9.566-9.456l-0.031,22.794h-12.783v-49.671
			l22.381,19.135L800.977,529.217z"/>
		<path fill="#FFFFFF" d="M650.879,551.006l3.107,7.284h0.297c0.146-0.444,0.289-0.888,0.426-1.333
			c0.135-0.44,0.301-0.875,0.5-1.291l1.998-4.66h11.389l-9.543,15.863v12.019h-9.908v-12.019l-9.727-15.863H650.879z"/>
		<path fill="#FFFFFF" d="M670.59,551.006h12.83c1.629,0,3.131,0.211,4.512,0.627c1.381,0.42,2.576,1.055,3.59,1.904
			c1.008,0.852,1.797,1.919,2.365,3.199c0.568,1.281,0.85,2.787,0.85,4.512c0,1.43-0.217,2.711-0.646,3.848
			c-0.43,1.133-1.041,2.1-1.828,2.902c-0.793,0.799-1.758,1.416-2.904,1.846c-1.146,0.435-2.424,0.648-3.828,0.648h-5.178v8.396
			h-9.762V551.006z M680.352,563.467h1c0.443,0,0.889-0.024,1.332-0.072c0.441-0.053,0.838-0.17,1.182-0.352
			c0.344-0.186,0.631-0.444,0.85-0.779c0.225-0.33,0.334-0.781,0.334-1.35c0-0.541-0.117-0.967-0.35-1.273
			c-0.234-0.311-0.531-0.537-0.889-0.686c-0.359-0.148-0.758-0.241-1.203-0.275c-0.443-0.038-0.875-0.056-1.295-0.056h-0.961
			V563.467z"/>
		<path fill="#FFFFFF" d="M697.365,551.006h18.744v7.618h-8.541v2.662h7.805v7.246h-7.805v2.737h8.838v7.618h-19.041V551.006z"/>
		<path fill="#FFFFFF" d="M815.482,578.888h-10.725l7.652-22.003l-5.359-5.879h18.6l9.947,27.882h-10.725l-0.924-3.478h-7.654
			L815.482,578.888z M822.174,568.791l-1.182-4.918c-0.148-0.59-0.273-1.188-0.373-1.791c-0.096-0.606-0.195-1.202-0.295-1.795
			h-0.369l-1.85,8.504H822.174z"/>
		<path fill="#FFFFFF" d="M837.777,551.006h9.873l-0.221,12.092h0.221c0.125-0.568,0.32-1.109,0.592-1.629
			c0.273-0.517,0.545-1.023,0.813-1.516l4.885-8.947h11.055l-8.727,13.569l9.652,14.313h-11.76l-4.809-8.431
			c-0.297-0.544-0.623-1.078-0.979-1.607c-0.357-0.531-0.598-1.082-0.723-1.646h-0.221l0.221,11.685h-9.873V551.006z"/>
		<path fill="#FFFFFF" d="M867.918,551.006h18.744v7.618h-8.541v2.662h7.805v7.246h-7.805v2.737h8.838v7.618h-19.041V551.006z"/>
		<path fill="#FFFFFF" d="M739.852,568.719c-0.248-0.248-0.52-0.507-0.816-0.779c0.938-0.316,1.746-0.675,2.424-1.07
			c0.68-0.393,1.24-0.875,1.682-1.443c0.443-0.564,0.771-1.232,0.98-1.998c0.211-0.76,0.314-1.673,0.314-2.734
			c0-1.749-0.307-3.24-0.924-4.473c-0.615-1.232-1.457-2.238-2.514-3.014c-1.061-0.778-2.293-1.34-3.699-1.684
			c-1.404-0.345-2.896-0.518-4.473-0.518h-12.242v27.882h9.91v-8.95h0.186l4.443,8.95h11.678l-6.064-9.061
			C740.393,569.334,740.096,568.967,739.852,568.719z M734.248,562.264c-0.186,0.311-0.438,0.545-0.758,0.703
			c-0.32,0.162-0.678,0.266-1.074,0.316c-0.393,0.049-0.799,0.072-1.219,0.072h-0.703v-4.731h0.779c0.439,0,0.861,0.024,1.256,0.073
			c0.393,0.051,0.738,0.161,1.033,0.334c0.297,0.172,0.531,0.412,0.703,0.719c0.172,0.311,0.262,0.734,0.262,1.277
			C734.527,561.545,734.434,561.958,734.248,562.264z"/>
	</g>
</g>
<g>
	<g>
		<g>
			<path d="M217.063,868.473l-20.305-8.411l34.295-82.797l20.305,8.413l-12.518,30.222l26.255,10.876l12.519-30.223l20.305,8.41
				l-34.295,82.797l-20.305-8.411l14.018-33.843l-26.256-10.875L217.063,868.473z"/>
			<path d="M165.503,938.101l29.299-70.736l18.476,7.711l-13.651,32.958l20.465-7.949l8.043,19.124l13.495-32.446l18.201,7.539
				l-29.298,70.734l-20.585-40.457L165.503,938.101z"/>
			<path d="M208.772,898.014l8.791-21.223l5.542,2.313l-4.096,9.889l6.142-2.385l2.412,5.737l4.05-9.734l5.458,2.264l-8.791,21.223
				l-6.175-12.141L208.772,898.014z"/>
			<g>
				
					<rect x="181.491" y="939.736" transform="matrix(0.9239 0.3826 -0.3826 0.9239 378.8867 1.9044)" width="6.329" height="27.445"/>
				
					<rect x="186.974" y="956.862" transform="matrix(0.9238 0.3828 -0.3828 0.9238 385.9953 1.1375)" width="6.33" height="27.445"/>
				
					<rect x="202.961" y="948.63" transform="matrix(0.9238 0.3829 -0.3829 0.9238 384.1998 -5.5835)" width="6.33" height="27.445"/>
			</g>
		</g>
		<path d="M85.954,1047.009H73.77V997.34h12.184v18.132h15.752V997.34h12.177v49.669h-12.177v-20.302H85.954V1047.009z"/>
		<path d="M277.273,997.34v49.669l-12.987-0.038v-23.137l-10.297,9.838l-9.567-9.458l-0.031,22.795h-12.784V997.34l22.382,19.134
			L277.273,997.34z"/>
		<path d="M127.177,1019.127l3.106,7.284h0.296c0.148-0.442,0.289-0.887,0.427-1.331c0.134-0.443,0.299-0.875,0.499-1.293
			l1.998-4.66h11.389l-9.543,15.864v12.018h-9.908v-12.018l-9.726-15.864H127.177z"/>
		<path d="M146.886,1019.127h12.832c1.629,0,3.13,0.211,4.512,0.629c1.381,0.42,2.576,1.054,3.588,1.904
			c1.009,0.851,1.798,1.916,2.366,3.197c0.568,1.283,0.851,2.787,0.851,4.512c0,1.432-0.217,2.713-0.647,3.848
			c-0.43,1.133-1.04,2.102-1.829,2.902c-0.792,0.801-1.756,1.417-2.903,1.848c-1.147,0.432-2.425,0.647-3.83,0.647h-5.176v8.395
			h-9.763V1019.127z M156.649,1031.589h0.999c0.444,0,0.889-0.024,1.333-0.074c0.441-0.05,0.837-0.167,1.181-0.351
			c0.344-0.185,0.63-0.445,0.851-0.777c0.224-0.332,0.334-0.781,0.334-1.35c0-0.543-0.117-0.968-0.351-1.275
			c-0.234-0.309-0.53-0.536-0.889-0.684c-0.358-0.148-0.757-0.242-1.202-0.277c-0.444-0.039-0.875-0.056-1.295-0.056h-0.961
			V1031.589z"/>
		<path d="M173.662,1019.127h18.745v7.618h-8.541v2.662h7.804v7.247h-7.804v2.736h8.837v7.618h-19.041V1019.127z"/>
		<path d="M291.779,1047.009h-10.724l7.652-22.003l-5.359-5.879h18.6l9.946,27.882H301.17l-0.923-3.477h-7.656L291.779,1047.009z
			 M298.47,1036.913l-1.181-4.918c-0.148-0.591-0.272-1.188-0.372-1.792c-0.096-0.605-0.196-1.202-0.296-1.795h-0.368l-1.85,8.505
			H298.47z"/>
		<path d="M314.074,1019.127h9.874l-0.221,12.092h0.221c0.124-0.566,0.32-1.109,0.592-1.627s0.544-1.023,0.813-1.516l4.883-8.949
			h11.055l-8.727,13.57l9.653,14.312h-11.761l-4.808-8.431c-0.296-0.543-0.624-1.078-0.978-1.608
			c-0.358-0.53-0.599-1.079-0.723-1.646h-0.221l0.221,11.685h-9.874V1019.127z"/>
		<path d="M344.215,1019.127h18.745v7.618h-8.541v2.662h7.804v7.247h-7.804v2.736h8.837v7.618h-19.041V1019.127z"/>
		<path d="M216.148,1036.839c-0.248-0.246-0.52-0.505-0.816-0.776c0.937-0.318,1.746-0.677,2.424-1.071
			c0.679-0.394,1.24-0.874,1.681-1.442c0.444-0.566,0.771-1.233,0.981-1.998c0.21-0.763,0.313-1.676,0.313-2.736
			c0-1.749-0.307-3.24-0.923-4.473c-0.617-1.233-1.457-2.237-2.514-3.014c-1.061-0.777-2.293-1.338-3.699-1.684
			c-1.405-0.346-2.896-0.518-4.474-0.518H196.88v27.882h9.911v-8.948h0.186l4.443,8.948h11.678l-6.064-9.06
			C216.689,1037.455,216.393,1037.087,216.148,1036.839z M210.545,1030.387c-0.186,0.309-0.438,0.543-0.757,0.703
			c-0.32,0.16-0.679,0.265-1.075,0.314c-0.393,0.049-0.799,0.072-1.219,0.072h-0.703v-4.731h0.778c0.441,0,0.861,0.024,1.257,0.074
			c0.393,0.05,0.737,0.16,1.033,0.332c0.296,0.173,0.53,0.413,0.703,0.722c0.172,0.309,0.262,0.733,0.262,1.275
			C210.825,1029.666,210.731,1030.078,210.545,1030.387z"/>
	</g>
	<g>
		<g>
			<path d="M507.039,899.74l-20.305-8.41l34.295-82.797l20.306,8.413l-12.519,30.22l26.256,10.876l12.518-30.224l20.307,8.414
				L553.6,919.029l-20.305-8.414l14.018-33.842l-26.255-10.877L507.039,899.74z"/>
			<path d="M455.48,969.367l29.298-70.736l18.476,7.711l-13.65,32.957l20.465-7.948l8.043,19.124l13.494-32.445l18.201,7.539
				l-29.299,70.733l-20.585-40.455L455.48,969.367z"/>
			<path d="M498.748,929.281l8.791-21.221l5.543,2.311l-4.097,9.891l6.142-2.387l2.412,5.737l4.051-9.731l5.459,2.262l-8.791,21.221
				l-6.175-12.139L498.748,929.281z"/>
			<g>
				
					<rect x="471.468" y="971.003" transform="matrix(0.924 0.3824 -0.3824 0.924 412.6082 -106.6555)" width="6.329" height="27.446"/>
				
					<rect x="476.95" y="988.131" transform="matrix(0.9237 0.383 -0.383 0.9237 420.3643 -107.4937)" width="6.33" height="27.443"/>
				
					<rect x="492.937" y="979.898" transform="matrix(0.9237 0.383 -0.383 0.9237 418.4305 -114.2451)" width="6.33" height="27.445"/>
			</g>
		</g>
		<path d="M609.656,948.632h-12.184v-49.671h12.184v18.133h15.754v-18.133h12.176v49.671H625.41V928.33h-15.754V948.632z"/>
		<path d="M800.977,898.961v49.671l-12.986-0.038v-23.139l-10.299,9.839l-9.566-9.456l-0.031,22.794h-12.783v-49.671l22.381,19.135
			L800.977,898.961z"/>
		<path d="M650.879,920.75l3.107,7.284h0.297c0.146-0.444,0.289-0.888,0.426-1.333c0.135-0.44,0.301-0.875,0.5-1.291l1.998-4.66
			h11.389l-9.543,15.863v12.019h-9.908v-12.019l-9.727-15.863H650.879z"/>
		<path d="M670.59,920.75h12.83c1.629,0,3.131,0.211,4.512,0.627c1.381,0.42,2.576,1.055,3.59,1.904
			c1.008,0.852,1.797,1.919,2.365,3.199c0.568,1.281,0.85,2.787,0.85,4.512c0,1.43-0.217,2.711-0.646,3.848
			c-0.43,1.133-1.041,2.1-1.828,2.902c-0.793,0.799-1.758,1.416-2.904,1.846c-1.146,0.435-2.424,0.648-3.828,0.648h-5.178v8.396
			h-9.762V920.75z M680.352,933.211h1c0.443,0,0.889-0.024,1.332-0.072c0.441-0.053,0.838-0.17,1.182-0.352
			c0.344-0.186,0.631-0.444,0.85-0.779c0.225-0.33,0.334-0.781,0.334-1.35c0-0.541-0.117-0.967-0.35-1.273
			c-0.234-0.311-0.531-0.537-0.889-0.686c-0.359-0.148-0.758-0.241-1.203-0.275c-0.443-0.038-0.875-0.056-1.295-0.056h-0.961
			V933.211z"/>
		<path d="M697.365,920.75h18.744v7.618h-8.541v2.662h7.805v7.246h-7.805v2.737h8.838v7.618h-19.041V920.75z"/>
		<path d="M815.482,948.632h-10.725l7.652-22.003l-5.359-5.879h18.6l9.947,27.882h-10.725l-0.924-3.478h-7.654L815.482,948.632z
			 M822.174,938.535l-1.182-4.918c-0.148-0.59-0.273-1.188-0.373-1.791c-0.096-0.606-0.195-1.202-0.295-1.795h-0.369l-1.85,8.504
			H822.174z"/>
		<path d="M837.777,920.75h9.873l-0.221,12.092h0.221c0.125-0.568,0.32-1.109,0.592-1.629c0.273-0.517,0.545-1.023,0.813-1.516
			l4.885-8.947h11.055l-8.727,13.569l9.652,14.313h-11.76l-4.809-8.431c-0.297-0.544-0.623-1.078-0.979-1.607
			c-0.357-0.531-0.598-1.082-0.723-1.646h-0.221l0.221,11.685h-9.873V920.75z"/>
		<path d="M867.918,920.75h18.744v7.618h-8.541v2.662h7.805v7.246h-7.805v2.737h8.838v7.618h-19.041V920.75z"/>
		<path d="M739.852,938.463c-0.248-0.248-0.52-0.507-0.816-0.779c0.938-0.316,1.746-0.675,2.424-1.07
			c0.68-0.393,1.24-0.875,1.682-1.443c0.443-0.564,0.771-1.232,0.98-1.998c0.211-0.76,0.314-1.673,0.314-2.734
			c0-1.749-0.307-3.24-0.924-4.473c-0.615-1.232-1.457-2.238-2.514-3.014c-1.061-0.778-2.293-1.34-3.699-1.684
			c-1.404-0.345-2.896-0.518-4.473-0.518h-12.242v27.882h9.91v-8.95h0.186l4.443,8.95h11.678l-6.064-9.061
			C740.393,939.078,740.096,938.711,739.852,938.463z M734.248,932.008c-0.186,0.311-0.438,0.545-0.758,0.703
			c-0.32,0.162-0.678,0.266-1.074,0.316c-0.393,0.049-0.799,0.072-1.219,0.072h-0.703v-4.731h0.779c0.439,0,0.861,0.024,1.256,0.073
			c0.393,0.051,0.738,0.161,1.033,0.334c0.297,0.172,0.531,0.412,0.703,0.719c0.172,0.311,0.262,0.734,0.262,1.277
			C734.527,931.289,734.434,931.702,734.248,932.008z"/>
	</g>
</g>
</svg>
