<?xml version="1.0" encoding="utf-8"?>
<!-- Generator: Adobe Illustrator 22.0.1, SVG Export Plug-In . SVG Version: 6.00 Build 0)  -->
<svg version="1.1" id="Layer_1" xmlns="http://www.w3.org/2000/svg" xmlns:xlink="http://www.w3.org/1999/xlink" x="0px" y="0px"
	 viewBox="0 0 1000 1000" style="enable-background:new 0 0 1000 1000;" xml:space="preserve">
<style type="text/css">
	.st0{fill:#8451A1;}
	.st1{fill:#FFFFFF;}
</style>
<g>
	<g>
		<polygon class="st0" points="349.1,615.5 80.6,615.5 140.8,384.5 409.3,384.5 		"/>
		<g>
			<polygon class="st1" points="168,580.9 126.4,580.9 168.5,419.1 210.2,419.1 			"/>
			<polygon class="st1" points="157.7,460.8 168.5,419.1 363.6,419.1 352.7,460.8 			"/>
			<polygon class="st1" points="244.7,580.9 203,580.9 245.2,419.1 286.9,419.1 			"/>
			<polygon class="st1" points="321.4,580.9 279.7,580.9 321.9,419.1 363.6,419.1 			"/>
			<polygon class="st0" points="202.8,541.7 213.7,500 276.2,500 265.4,541.7 			"/>
		</g>
	</g>
	<g>
		<g>
			<path class="st0" d="M435.6,388.9h23l-11,41.3h41.8l11-41.3h23l-28.1,104.4h-23l11.3-41.9h-41.8l-11.3,41.9h-23L435.6,388.9z"/>
			<path class="st0" d="M564.8,451l-27.3-62.1h8.5l24,56.1l54.3-56.1h10.4l-62.8,64l-10.7,40.4h-7.8L564.8,451z"/>
			<path class="st0" d="M651.6,388.9h32.5c12.5,0,22.5,3.1,28.8,9.4c4.6,4.6,7.2,10.9,7.2,18.6c0,9.7-3.3,17.6-9.4,23.7
				c-8.8,8.8-23.6,13.6-42.2,13.6h-26.6l-10.6,39.1h-7.8L651.6,388.9z M684,396.1h-26.5l-13.7,51.2h25.1c16.7,0,29.1-3.9,36.2-11
				c4.9-4.9,7.3-11.2,7.3-18.9c0-5.7-1.6-10.1-5.4-13.9C702.2,398.6,694.3,396.1,684,396.1z"/>
			<path class="st0" d="M750.5,388.9h73.5l-1.9,7.2h-65.8l-11,41h59.1l-1.9,7.2h-59.1l-11.2,41.9h66.5l-1.9,7.2h-74.3L750.5,388.9z"
				/>
			<path class="st0" d="M871.1,450.1h-4.3h-28l-11.6,43.3h-7.8l28-104.4h37.4c12.4,0,21.9,3.1,28,9.2c4.3,4.3,6.6,10.3,6.6,17
				c0,8.7-3.4,16-9.2,21.8c-8.1,8.1-20.3,11.2-30.7,12.4l23,44h-9L871.1,450.1z M871.8,443.1c15.5,0,26.6-4.3,32.8-10.6
				c4.6-4.6,7-10.1,7-16.9c0-4.9-1.6-9.4-4.6-12.4c-4.6-4.6-11.8-7.2-22.5-7.2h-31.3l-12.7,47H871.8z"/>
			<path class="st0" d="M403.6,506.7h23.9l15.1,44.2l38.9-44.2h26.6L480,611.1h-23.3l18.2-68.2l-40.9,44.6h-0.6l-16.7-44.2
				l-18.2,67.7h-23L403.6,506.7z"/>
			<path class="st0" d="M575.1,505.9h7.5L603,611.1H595l-5.4-29.2h-61.6l-21.2,29.2h-8.7L575.1,505.9z M588.2,574.9L577,514.4
				l-43.9,60.4H588.2z"/>
			<path class="st0" d="M650,506.7h7.8l-18.2,67.9l83.5-67.9h11.5l-58,46.7l31.6,57.7h-9l-29.1-53.3L636.7,585l-7,26.1h-7.8
				L650,506.7z"/>
			<path class="st0" d="M756.5,506.7H830l-1.9,7.2h-65.8l-11,41h59.1l-1.9,7.2h-59.1l-11.2,41.9h66.5l-1.9,7.2h-74.3L756.5,506.7z"
				/>
		</g>
	</g>
</g>
</svg>
