<?xml version="1.0" encoding="utf-8"?>
<!-- Generator: Adobe Illustrator 22.0.1, SVG Export Plug-In . SVG Version: 6.00 Build 0)  -->
<svg version="1.1" id="Layer_1" xmlns="http://www.w3.org/2000/svg" xmlns:xlink="http://www.w3.org/1999/xlink" x="0px" y="0px"
	 viewBox="0 0 1000 1000" style="enable-background:new 0 0 1000 1000;" xml:space="preserve">
<style type="text/css">
	.st0{fill:#8451A1;}
	.st1{fill:#FFFFFF;}
</style>
<g>
	<polygon class="st0" points="177.4,572.3 34.9,572.3 66.9,449.8 209.3,449.8 	"/>
	<g>
		<polygon class="st1" points="81.3,553.9 59.2,553.9 81.6,468.2 103.7,468.2 		"/>
		<polygon class="st1" points="75.8,490.3 81.6,468.2 185,468.2 179.3,490.3 		"/>
		<polygon class="st1" points="122,553.9 99.9,553.9 122.2,468.2 144.4,468.2 		"/>
		<polygon class="st1" points="162.7,553.9 140.6,553.9 162.9,468.2 185,468.2 		"/>
		<polygon class="st0" points="99.8,533.2 105.5,511.1 138.7,511.1 132.9,533.2 		"/>
	</g>
</g>
<g>
	<g>
		<path class="st0" d="M229.5,463.2h21.2l-10.2,38.1h38.6l10.2-38.1h21.2l-25.9,96.4h-21.2l10.5-38.7h-38.6l-10.5,38.7h-21.2
			L229.5,463.2z"/>
		<path class="st0" d="M332.2,520.5L307,463.2h7.9l22.2,51.8l50.1-51.8h9.6l-58,59.1l-9.9,37.3h-7.2L332.2,520.5z"/>
		<path class="st0" d="M395.9,463.2h30c11.6,0,20.8,2.9,26.6,8.7c4.3,4.3,6.6,10.1,6.6,17.2c0,9-3,16.3-8.7,21.9
			c-8.1,8.1-21.8,12.5-39,12.5h-24.5l-9.8,36.1H370L395.9,463.2z M425.8,469.8h-24.5L388.6,517h23.1c15.4,0,26.9-3.6,33.5-10.2
			c4.5-4.5,6.7-10.3,6.7-17.5c0-5.2-1.5-9.4-5-12.8C442.6,472.1,435.3,469.8,425.8,469.8z"/>
		<path class="st0" d="M470.6,463.2h67.9l-1.8,6.6H476l-10.2,37.9h54.5l-1.8,6.6H464L453.7,553h61.4l-1.8,6.6h-68.6L470.6,463.2z"/>
		<path class="st0" d="M565.4,519.7h-4h-25.9l-10.7,39.9h-7.2l25.9-96.4h34.6c11.4,0,20.2,2.9,25.9,8.5c4,4,6.1,9.5,6.1,15.7
			c0,8-3.2,14.7-8.5,20.1c-7.4,7.4-18.7,10.3-28.4,11.4l21.2,40.6h-8.3L565.4,519.7z M566.1,513.2c14.3,0,24.5-4,30.3-9.8
			c4.3-4.3,6.5-9.4,6.5-15.6c0-4.5-1.5-8.7-4.3-11.4c-4.3-4.3-10.9-6.6-20.8-6.6h-28.9l-11.7,43.4H566.1z"/>
		<path class="st0" d="M621.9,463.2h22l13.9,40.8l35.9-40.8h24.5l-25.9,96.4h-21.5l16.8-62.9L650,537.8h-0.6L634,497.1l-16.8,62.5
			H596L621.9,463.2z"/>
		<path class="st0" d="M763.6,462.5h6.9l18.9,97.1H782l-5-27h-56.9l-19.6,27h-8L763.6,462.5z M775.7,526.1l-10.3-55.8l-40.5,55.8
			H775.7z"/>
		<path class="st0" d="M816.2,463.2h7.2l-16.8,62.7l77.1-62.7h10.6l-53.6,43.1l29.2,53.3h-8.3l-26.9-49.2l-30.9,25.1l-6.5,24.1h-7.2
			L816.2,463.2z"/>
		<path class="st0" d="M898,463.2h67.9l-1.8,6.6h-60.7l-10.2,37.9h54.5l-1.8,6.6h-54.5L881.1,553h61.4l-1.8,6.6h-68.6L898,463.2z"/>
	</g>
</g>
</svg>
