<svg xmlns="http://www.w3.org/2000/svg" viewBox="0 0 1035.28 136.21"><defs><style>.cls-1{fill:#8451a1;}.cls-2{fill:#fff;}</style></defs><title>Asset 1</title><g id="Layer_2" data-name="Layer 2"><g id="Layer_1-2" data-name="Layer 1"><polygon class="cls-1" points="158.38 136.21 0 136.21 35.52 0 193.9 0 158.38 136.21"/><polygon class="cls-2" points="51.57 115.8 26.98 115.8 51.86 20.41 76.45 20.41 51.57 115.8"/><polygon class="cls-2" points="45.45 44.99 51.86 20.41 166.92 20.41 160.51 44.99 45.45 44.99"/><polygon class="cls-2" points="96.81 115.8 72.22 115.8 97.1 20.41 121.69 20.41 96.81 115.8"/><polygon class="cls-2" points="142.04 115.8 117.46 115.8 142.34 20.41 166.92 20.41 142.04 115.8"/><polygon class="cls-1" points="72.1 92.69 78.51 68.1 115.39 68.1 108.98 92.69 72.1 92.69"/><path class="cls-1" d="M216.36,14.89h23.58L228.61,57.31h42.88l11.34-42.42h23.58L277.62,122.1H254l11.64-43H222.79l-11.64,43H187.57Z"/><path class="cls-1" d="M330.62,78.59l-28-63.72h8.73L336,72.47l55.75-57.6h10.72L338,80.59l-11,41.51h-8Z"/><path class="cls-1" d="M401.37,14.87h33.39c12.87,0,23.13,3.22,29.57,9.65,4.74,4.75,7.35,11.19,7.35,19.15,0,10-3.37,18.08-9.65,24.36-9,9-24.2,13.94-43.35,13.94H391.42L380.54,122.1h-8Zm33.24,7.36H407.35l-14.1,52.54H419c17.15,0,29.87-4,37.22-11.34,5.05-5,7.5-11.49,7.5-19.45,0-5.82-1.68-10.42-5.51-14.25C453.3,24.83,445.18,22.23,434.61,22.23Z"/><path class="cls-1" d="M484.53,14.87h75.52l-2,7.36H490.51L479.17,64.35h60.66l-2,7.35H477.18l-11.48,43H534l-2,7.36H455.74Z"/><path class="cls-1" d="M589.91,77.68H556.67L544.72,122.1h-8l28.8-107.23H604c12.71,0,22.51,3.22,28.79,9.5,4.44,4.44,6.74,10.57,6.74,17.46A30.92,30.92,0,0,1,630,64.2c-8.27,8.27-20.83,11.48-31.56,12.71l23.59,45.19h-9.19Zm.76-7.2c15.93,0,27.27-4.45,33.7-10.88a23.46,23.46,0,0,0,7.2-17.31,17.86,17.86,0,0,0-4.75-12.71c-4.75-4.75-12.1-7.35-23.13-7.35H571.52l-13,48.25Z"/><path class="cls-1" d="M652.69,14.89H677.2l15.46,45.33,40-45.33H759.9L731.1,122.1H707.21l18.69-70-42,45.8h-.61L666.17,52.56,647.48,122.1H623.9Z"/><path class="cls-1" d="M810.29,14.11H818l21,108h-8.12l-5.52-30H762l-21.75,30h-8.88Zm13.48,70.77-11.48-62-45,62Z"/><path class="cls-1" d="M868.79,14.87h8l-18.69,69.7,85.78-69.7h11.79l-59.58,48,32.47,59.28h-9.19L889.47,67.41,855.16,95.29,848,122.1h-8Z"/><path class="cls-1" d="M959.76,14.87h75.52l-2,7.36H965.74L954.4,64.35h60.66l-2,7.35H952.41l-11.49,43h68.32l-2,7.36H931Z"/></g></g></svg>