<svg xmlns="http://www.w3.org/2000/svg" viewBox="0 0 838.78 230.91"><defs><style>.cls-1{fill:#8451a1;}.cls-2{fill:#fff;}</style></defs><title>Asset 2</title><g id="Layer_2" data-name="Layer 2"><g id="Layer_1-2" data-name="Layer 1"><polygon class="cls-1" points="268.5 230.91 0 230.91 60.23 0 328.72 0 268.5 230.91"/><polygon class="cls-2" points="87.42 196.31 45.74 196.31 87.92 34.59 129.6 34.59 87.42 196.31"/><polygon class="cls-2" points="77.05 76.28 87.92 34.59 282.98 34.59 272.11 76.28 77.05 76.28"/><polygon class="cls-2" points="164.11 196.31 122.43 196.31 164.61 34.59 206.29 34.59 164.11 196.31"/><polygon class="cls-2" points="240.8 196.31 199.12 196.31 241.3 34.59 282.98 34.59 240.8 196.31"/><polygon class="cls-1" points="122.23 157.13 133.1 115.45 195.62 115.45 184.75 157.13 122.23 157.13"/><path class="cls-1" d="M355,4.36h23l-11,41.33h41.78l11-41.33h23L414.64,108.8h-23L403,66.87H361.22L349.88,108.8h-23Z"/><path class="cls-1" d="M484.15,66.44l-27.3-62h8.51l24,56.08,54.3-56.08h10.44l-62.8,64L480.57,108.8h-7.76Z"/><path class="cls-1" d="M571,4.39h32.52c12.53,0,22.52,3.13,28.79,9.4,4.62,4.62,7.16,10.88,7.16,18.64,0,9.7-3.29,17.6-9.4,23.72-8.8,8.8-23.57,13.57-42.21,13.57H561.29L550.71,108.8H543Zm32.37,7.16H576.81L563.08,62.71h25.06c16.71,0,29.09-3.88,36.25-11,4.92-4.92,7.31-11.19,7.31-18.94,0-5.67-1.64-10.15-5.37-13.87C621.56,14.08,613.65,11.55,603.36,11.55Z"/><path class="cls-1" d="M669.91,4.39h73.54l-1.94,7.16H675.73l-11,41h59.07l-1.94,7.17H662.75l-11.19,41.91h66.53l-1.94,7.16H641.87Z"/><path class="cls-1" d="M790.45,65.54H758.09L746.45,108.8h-7.76l28-104.41h37.44c12.38,0,21.92,3.13,28,9.25,4.32,4.32,6.56,10.29,6.56,17a30,30,0,0,1-9.25,21.77c-8,8.06-20.28,11.19-30.72,12.39l23,44h-8.95Zm.75-7c15.51,0,26.55-4.32,32.82-10.59a22.85,22.85,0,0,0,7-16.85,17.38,17.38,0,0,0-4.63-12.38c-4.62-4.63-11.78-7.16-22.52-7.16H772.55l-12.67,47Z"/><path class="cls-1" d="M323,122.11h23.88L362,166.27l38.94-44.16h26.56L399.43,226.55H376.15l18.2-68.19L353.47,203h-.59l-16.72-44.17L318,226.55H295Z"/><path class="cls-1" d="M494.45,121.39h7.46l20.43,105.16h-7.9l-5.37-29.24H447.46l-21.18,29.24h-8.65Zm13.12,68.91-11.18-60.41L452.53,190.3Z"/><path class="cls-1" d="M569.35,122.14h7.76L558.91,190l83.53-67.87h11.49l-58,46.68,31.62,57.73h-8.95L589.49,173.3l-33.41,27.14-7,26.11h-7.76Z"/><path class="cls-1" d="M675.88,122.14h73.54l-1.94,7.16H681.7l-11,41h59.07l-1.94,7.17H668.72l-11.19,41.91h66.53l-1.94,7.16H647.84Z"/></g></g></svg>