<svg xmlns="http://www.w3.org/2000/svg" viewBox="0 0 193.9 136.21"><defs><style>.cls-1{fill:#8451a1;}.cls-2{fill:#fff;}</style></defs><title>Asset 3</title><g id="Layer_2" data-name="Layer 2"><g id="Layer_1-2" data-name="Layer 1"><polygon class="cls-1" points="158.38 136.21 0 136.21 35.52 0 193.9 0 158.38 136.21"/><polygon class="cls-2" points="51.57 115.8 26.98 115.8 51.86 20.41 76.45 20.41 51.57 115.8"/><polygon class="cls-2" points="45.45 44.99 51.86 20.41 166.92 20.41 160.51 44.99 45.45 44.99"/><polygon class="cls-2" points="96.81 115.8 72.22 115.8 97.1 20.41 121.69 20.41 96.81 115.8"/><polygon class="cls-2" points="142.04 115.8 117.46 115.8 142.34 20.41 166.92 20.41 142.04 115.8"/><polygon class="cls-1" points="72.1 92.69 78.51 68.1 115.39 68.1 108.98 92.69 72.1 92.69"/></g></g></svg>